<svg width="17" height="18" viewBox="0 0 17 18" fill="none" xmlns="http://www.w3.org/2000/svg">
<path fill-rule="evenodd" clip-rule="evenodd" d="M4.02016 8.2891L2.82843 9.48083C1.26633 11.0429 1.26633 13.5756 2.82843 15.1377C4.39052 16.6998 6.92319 16.6998 8.48528 15.1377L10.1377 13.4853C11.6998 11.9232 11.6998 9.39052 10.1377 7.82842C10.0221 7.71281 9.90116 7.60576 9.7757 7.50726L8.70248 8.58048C8.83464 8.66936 8.96018 8.77223 9.07703 8.88908C10.0533 9.86539 10.0533 11.4483 9.07703 12.4246L7.42462 14.077C6.44831 15.0533 4.8654 15.0533 3.88909 14.077C2.91278 13.1007 2.91278 11.5178 3.88909 10.5415L5.08082 9.34976L4.02016 8.2891Z" fill="#16171F"/>
<path fill-rule="evenodd" clip-rule="evenodd" d="M12.946 9.67701L14.1377 8.48528C15.6998 6.92318 15.6998 4.39052 14.1377 2.82843C12.5756 1.26633 10.0429 1.26633 8.48084 2.82843L6.82843 4.48084C5.26633 6.04294 5.26633 8.5756 6.82843 10.1377C6.94404 10.2533 7.06497 10.3604 7.19042 10.4589L8.26364 9.38564C8.13149 9.29675 8.00595 9.19389 7.88909 9.07703C6.91278 8.10072 6.91278 6.51781 7.88909 5.5415L9.5415 3.88909C10.5178 2.91278 12.1007 2.91278 13.077 3.88909C14.0533 4.8654 14.0533 6.44831 13.077 7.42462L11.8853 8.61635L12.946 9.67701Z" fill="#16171F"/>
</svg>
