<svg width="23" height="16" viewBox="0 0 23 16" fill="none" xmlns="http://www.w3.org/2000/svg">
<mask id="path-1-inside-1_9_142" fill="white">
<path fill-rule="evenodd" clip-rule="evenodd" d="M0 3C0 1.34315 1.34315 0 3 0H15C16.6569 0 18 1.34315 18 3V4L23 2V14L18 12V13C18 14.6569 16.6569 16 15 16H3C1.34315 16 0 14.6569 0 13V3ZM12 8L7 5V11L12 8Z"/>
</mask>
<path fill-rule="evenodd" clip-rule="evenodd" d="M0 3C0 1.34315 1.34315 0 3 0H15C16.6569 0 18 1.34315 18 3V4L23 2V14L18 12V13C18 14.6569 16.6569 16 15 16H3C1.34315 16 0 14.6569 0 13V3ZM12 8L7 5V11L12 8Z" fill="#FE274B"/>
<path d="M18 4H16C16 4.66365 16.3292 5.28407 16.8787 5.65613C17.4283 6.02819 18.1266 6.10343 18.7428 5.85695L18 4ZM23 2H25C25 1.33635 24.6708 0.715926 24.1213 0.343866C23.5717 -0.0281944 22.8734 -0.103426 22.2572 0.143047L23 2ZM23 14L22.2572 15.857C22.8734 16.1034 23.5717 16.0282 24.1213 15.6561C24.6708 15.2841 25 14.6636 25 14H23ZM18 12L18.7428 10.143C18.1266 9.89657 17.4283 9.97181 16.8787 10.3439C16.3292 10.7159 16 11.3364 16 12H18ZM7 5L8.02899 3.28501C7.41113 2.9143 6.64162 2.90459 6.0146 3.2596C5.38759 3.61461 5 4.27946 5 5H7ZM12 8L13.029 9.71499C13.6314 9.35354 14 8.70253 14 8C14 7.29747 13.6314 6.64646 13.029 6.28501L12 8ZM7 11H5C5 11.7205 5.38759 12.3854 6.0146 12.7404C6.64162 13.0954 7.41113 13.0857 8.02899 12.715L7 11ZM3 -2C0.238576 -2 -2 0.238576 -2 3H2C2 2.44772 2.44772 2 3 2V-2ZM15 -2H3V2H15V-2ZM20 3C20 0.238577 17.7614 -2 15 -2V2C15.5523 2 16 2.44772 16 3H20ZM20 4V3H16V4H20ZM22.2572 0.143047L17.2572 2.14305L18.7428 5.85695L23.7428 3.85695L22.2572 0.143047ZM25 14V2H21V14H25ZM17.2572 13.857L22.2572 15.857L23.7428 12.143L18.7428 10.143L17.2572 13.857ZM20 13V12H16V13H20ZM15 18C17.7614 18 20 15.7614 20 13H16C16 13.5523 15.5523 14 15 14V18ZM3 18H15V14H3V18ZM-2 13C-2 15.7614 0.238577 18 3 18V14C2.44772 14 2 13.5523 2 13H-2ZM-2 3V13H2V3H-2ZM5.97101 6.71499L10.971 9.71499L13.029 6.28501L8.02899 3.28501L5.97101 6.71499ZM9 11V5H5V11H9ZM10.971 6.28501L5.97101 9.28501L8.02899 12.715L13.029 9.71499L10.971 6.28501Z" fill="#FE274B" mask="url(#path-1-inside-1_9_142)"/>
</svg>
