<svg width="23" height="16" viewBox="0 0 23 16" fill="none" xmlns="http://www.w3.org/2000/svg">
<path d="M8 10V6L11 8L8 10Z" fill="black" stroke="black" stroke-width="2" stroke-linejoin="round"/>
<mask id="path-2-inside-1_9_130" fill="white">
<path fill-rule="evenodd" clip-rule="evenodd" d="M3 0C1.34315 0 0 1.34315 0 3V13C0 14.6569 1.34315 16 3 16H15C16.6569 16 18 14.6569 18 13V12L23 14V2L18 4V3C18 1.34315 16.6569 0 15 0H3Z"/>
</mask>
<path d="M18 12L18.7428 10.143C18.1266 9.89657 17.4283 9.97181 16.8787 10.3439C16.3292 10.7159 16 11.3364 16 12H18ZM23 14L22.2572 15.857C22.8734 16.1034 23.5717 16.0282 24.1213 15.6561C24.6708 15.2841 25 14.6636 25 14H23ZM23 2H25C25 1.33635 24.6708 0.715926 24.1213 0.343866C23.5717 -0.0281944 22.8734 -0.103426 22.2572 0.143047L23 2ZM18 4H16C16 4.66365 16.3292 5.28407 16.8787 5.65613C17.4283 6.02819 18.1266 6.10343 18.7428 5.85695L18 4ZM2 3C2 2.44772 2.44772 2 3 2V-2C0.238576 -2 -2 0.238576 -2 3H2ZM2 13V3H-2V13H2ZM3 14C2.44772 14 2 13.5523 2 13H-2C-2 15.7614 0.238577 18 3 18V14ZM15 14H3V18H15V14ZM16 13C16 13.5523 15.5523 14 15 14V18C17.7614 18 20 15.7614 20 13H16ZM16 12V13H20V12H16ZM23.7428 12.143L18.7428 10.143L17.2572 13.857L22.2572 15.857L23.7428 12.143ZM21 2V14H25V2H21ZM18.7428 5.85695L23.7428 3.85695L22.2572 0.143047L17.2572 2.14305L18.7428 5.85695ZM16 3V4H20V3H16ZM15 2C15.5523 2 16 2.44772 16 3H20C20 0.238577 17.7614 -2 15 -2V2ZM3 2H15V-2H3V2Z" fill="black" mask="url(#path-2-inside-1_9_130)"/>
</svg>
