<svg width="110" height="33" viewBox="0 0 110 33" fill="none" xmlns="http://www.w3.org/2000/svg">
<path d="M81 30.5C79.3368 30.5 77.9072 30.1669 76.7113 29.5006C75.5223 28.8277 74.6048 27.8922 73.9588 26.6943C73.3196 25.4897 73 24.0933 73 22.505C73 20.9101 73.3196 19.5137 73.9588 18.3158C74.6048 17.1111 75.5223 16.1757 76.7113 15.5095C77.9072 14.8365 79.3368 14.5 81 14.5C82.6632 14.5 84.0893 14.8365 85.2784 15.5095C86.4742 16.1757 87.3918 17.1111 88.0309 18.3158C88.677 19.5137 89 20.9101 89 22.505C89 24.0933 88.677 25.4897 88.0309 26.6943C87.3918 27.8922 86.4742 28.8277 85.2784 29.5006C84.0893 30.1669 82.6632 30.5 81 30.5ZM81.0309 26.7751C81.6357 26.7751 84.0808 27.1385 84.5 26.7751C84.9192 26.4117 85.7801 24.1461 86 23.5C86.2268 22.8539 86 21.3479 86 20.5C86 19.6386 85.5052 18.9618 85.2784 18.3158C85.0584 17.6697 84.4192 17.3634 84 17C83.5808 16.6366 82.11 16.6401 81.5052 16.6401C80.8797 16.6401 79.8763 18.336 79.4433 18.6994C79.0172 19.0628 78.6907 19.5675 78.4639 20.2136C78.244 20.8596 78.134 21.6134 78.134 22.4748C78.134 23.3227 78.244 24.0697 78.4639 24.7158C78.6907 25.3618 79.0172 25.8666 79.4433 26.23C79.8763 26.5934 80.4055 26.7751 81.0309 26.7751Z" fill="#21F2EB"/>
<path d="M84 30.5C82.3368 30.5 80.9072 30.1669 79.7113 29.5006C78.5223 28.8277 77.6048 27.8922 76.9588 26.6943C76.3196 25.4897 76 24.0933 76 22.505C76 20.9101 76.3196 19.5137 76.9588 18.3158C77.6048 17.1111 78.5223 16.1757 79.7113 15.5095C80.9072 14.8365 82.3368 14.5 84 14.5C85.6632 14.5 87.0893 14.8365 88.2784 15.5095C89.4742 16.1757 90.3918 17.1111 91.0309 18.3158C91.677 19.5137 92 20.9101 92 22.505C92 24.0933 91.677 25.4897 91.0309 26.6943C90.3918 27.8922 89.4742 28.8277 88.2784 29.5006C87.0893 30.1669 85.6632 30.5 84 30.5ZM84 27.5C84.6048 27.5 85.1478 26.5934 85.567 26.23C85.9863 25.8666 86.3058 25.3618 86.5258 24.7158C86.7526 24.0697 86.866 23.3227 86.866 22.4748C86.866 21.6134 86.7526 20.8596 86.5258 20.2136C86.3058 19.5675 85.9863 19.0628 85.567 18.6994C85.1478 18.336 84.1048 17 83.5 17C82.8746 17 80.433 17.1366 80 17.5C79.5739 17.8634 78.7268 19.3539 78.5 20C78.2801 20.6461 78 22.6386 78 23.5C78 24.3479 78.7801 26.0483 79 26.6943C79.2268 27.3404 81.0739 27.1366 81.5 27.5C81.933 27.8634 83.3746 27.5 84 27.5Z" fill="#FE274B"/>
<path d="M37.7958 29.9709H30V8.87997H37.7855C39.9344 8.87997 41.7847 9.3022 43.3363 10.1467C44.8948 10.9843 46.0962 12.1926 46.9407 13.7717C47.7852 15.3439 48.2074 17.225 48.2074 19.4151C48.2074 21.6121 47.7852 23.5001 46.9407 25.0792C46.1031 26.6583 44.9051 27.87 43.3466 28.7145C41.7881 29.5521 39.9379 29.9709 37.7958 29.9709ZM35.0977 25.625H37.6001C38.781 25.625 39.7799 25.4259 40.5969 25.0277C41.4208 24.6226 42.0421 23.967 42.4609 23.0607C42.8866 22.1476 43.0994 20.9324 43.0994 19.4151C43.0994 17.8978 42.8866 16.6895 42.4609 15.7901C42.0353 14.8839 41.4071 14.2317 40.5763 13.8335C39.7525 13.4284 38.7364 13.2259 37.5281 13.2259H35.0977V25.625Z" fill="black"/>
<path d="M50.6036 29.9709V14.1527H55.6395V29.9709H50.6036ZM53.1267 12.3093C52.4195 12.3093 51.8119 12.0759 51.3039 11.609C50.7958 11.1353 50.5418 10.5655 50.5418 9.8995C50.5418 9.24041 50.7958 8.67744 51.3039 8.21058C51.8119 7.73686 52.4195 7.5 53.1267 7.5C53.8407 7.5 54.4483 7.73686 54.9495 8.21058C55.4575 8.67744 55.7115 9.24041 55.7115 9.8995C55.7115 10.5655 55.4575 11.1353 54.9495 11.609C54.4483 12.0759 53.8407 12.3093 53.1267 12.3093Z" fill="black"/>
<path d="M57.5748 13.0199V8.87997H75.4012V13.0199H69.0059V29.9709H63.9804V13.0199H57.5748Z" fill="black"/>
<path d="M82.4007 30.2695C80.7393 30.2695 79.3112 29.9297 78.1166 29.25C76.9289 28.5634 76.0123 27.6091 75.367 26.3871C74.7285 25.1581 74.4092 23.7335 74.4092 22.1133C74.4092 20.4862 74.7285 19.0616 75.367 17.8395C76.0123 16.6106 76.9289 15.6563 78.1166 14.9766C79.3112 14.29 80.7393 13.9467 82.4007 13.9467C84.0622 13.9467 85.4868 14.29 86.6745 14.9766C87.8691 15.6563 88.7857 16.6106 89.4241 17.8395C90.0695 19.0616 90.3922 20.4862 90.3922 22.1133C90.3922 23.7335 90.0695 25.1581 89.4241 26.3871C88.7857 27.6091 87.8691 28.5634 86.6745 29.25C85.4868 29.9297 84.0622 30.2695 82.4007 30.2695ZM82.4316 26.4695C83.0358 26.4695 83.5473 26.2841 83.9661 25.9134C84.3849 25.5426 84.7041 25.0277 84.9238 24.3686C85.1504 23.7095 85.2636 22.9474 85.2636 22.0824C85.2636 21.2036 85.1504 20.4347 84.9238 19.7756C84.7041 19.1165 84.3849 18.6016 83.9661 18.2308C83.5473 17.8601 83.0358 17.6747 82.4316 17.6747C81.8068 17.6747 81.2782 17.8601 80.8457 18.2308C80.42 18.6016 80.0939 19.1165 79.8673 19.7756C79.6476 20.4347 79.5378 21.2036 79.5378 22.0824C79.5378 22.9474 79.6476 23.7095 79.8673 24.3686C80.0939 25.0277 80.42 25.5426 80.8457 25.9134C81.2782 26.2841 81.8068 26.4695 82.4316 26.4695Z" fill="black"/>
<path d="M98.3984 25.8207L98.419 19.8168H99.1193L103.568 14.1527H109.273L102.662 22.2678H101.333L98.3984 25.8207ZM93.8569 29.9709V8.87997H98.8928V29.9709H93.8569ZM103.681 29.9709L99.5415 23.4006L102.858 19.8271L109.5 29.9709H103.681Z" fill="black"/>
<path d="M82.4007 30.2695C80.7393 30.2695 79.3112 29.9297 78.1166 29.25C76.9289 28.5634 76.0123 27.6091 75.367 26.3871C74.7285 25.1581 74.4092 23.7335 74.4092 22.1133C74.4092 20.4862 74.7285 19.0616 75.367 17.8395C76.0123 16.6106 76.9289 15.6563 78.1166 14.9766C79.3112 14.29 80.7393 13.9467 82.4007 13.9467C84.0622 13.9467 85.4868 14.29 86.6745 14.9766C87.8691 15.6563 88.7857 16.6106 89.4241 17.8395C90.0695 19.0616 90.3922 20.4862 90.3922 22.1133C90.3922 23.7335 90.0695 25.1581 89.4241 26.3871C88.7857 27.6091 87.8691 28.5634 86.6745 29.25C85.4868 29.9297 84.0622 30.2695 82.4007 30.2695ZM82.4316 26.4695C83.0358 26.4695 83.5473 26.2841 83.9661 25.9134C84.3849 25.5426 84.7041 25.0277 84.9238 24.3686C85.1504 23.7095 85.2636 22.9474 85.2636 22.0824C85.2636 21.2036 85.1504 20.4347 84.9238 19.7756C84.7041 19.1165 84.3849 18.6016 83.9661 18.2308C83.5473 17.8601 83.0358 17.6747 82.4316 17.6747C81.8068 17.6747 81.2782 17.8601 80.8457 18.2308C80.42 18.6016 80.0939 19.1165 79.8673 19.7756C79.6476 20.4347 79.5378 21.2036 79.5378 22.0824C79.5378 22.9474 79.6476 23.7095 79.8673 24.3686C80.0939 25.0277 80.42 25.5426 80.8457 25.9134C81.2782 26.2841 81.8068 26.4695 82.4316 26.4695Z" fill="black"/>
<path d="M10.5 15.5C5 15.5 2 18 2 22C2 26 5 28.5 9 28.5C14.2505 28.5 15.6071 23.9 15.6071 20.0789V1C15.9524 6.55789 17.5 12.5 24.5 12.5" stroke="#21F2EB" stroke-width="3.5"/>
<path d="M12.5 17.5C7 17.5 4 20 4 24C4 28 7 30.5 11 30.5C16.2505 30.5 17.6071 25.9 17.6071 22.0789V3C17.9524 8.55789 19.5 14.5 26.5 14.5" stroke="#FE274B" stroke-width="3.5"/>
<path d="M11.5 16.5C6 16.5 3 19 3 23C3 27 6 29.5 10 29.5C15.2505 29.5 16.6071 24.9 16.6071 21.0789V2C16.9524 7.55789 18.5 13.5 25.5 13.5" stroke="black" stroke-width="3.5"/>
</svg>
