<svg width="22" height="21" viewBox="0 0 22 21" fill="none" xmlns="http://www.w3.org/2000/svg">
<path fill-rule="evenodd" clip-rule="evenodd" d="M21.5154 9C21.5154 9.35231 21.4918 9.69988 21.4459 10.0416L21.5154 10C21.4575 10.309 21.3701 10.651 21.2501 11.0194C21.0141 11.9018 20.6268 12.7347 20.1127 13.497C18.6381 16.0071 15.9477 18.9142 11.5154 21C11.7019 20.2543 11.9612 19.0291 12.0837 17.954C11.7325 17.9844 11.3761 18 11.0154 18C5.21645 18 0.515442 13.9706 0.515442 9C0.515442 4.02944 5.21645 0 11.0154 0C16.8144 0 21.5154 4.02944 21.5154 9ZM6.01544 11C6.84387 11 7.51544 10.3284 7.51544 9.5C7.51544 8.67157 6.84387 8 6.01544 8C5.18701 8 4.51544 8.67157 4.51544 9.5C4.51544 10.3284 5.18701 11 6.01544 11ZM12.5154 9.5C12.5154 10.3284 11.8439 11 11.0154 11C10.187 11 9.51544 10.3284 9.51544 9.5C9.51544 8.67157 10.187 8 11.0154 8C11.8439 8 12.5154 8.67157 12.5154 9.5ZM16.0154 11C16.8439 11 17.5154 10.3284 17.5154 9.5C17.5154 8.67157 16.8439 8 16.0154 8C15.187 8 14.5154 8.67157 14.5154 9.5C14.5154 10.3284 15.187 11 16.0154 11Z" fill="black"/>
</svg>
